<svg width="18" height="16" viewBox="0 0 18 16" fill="none" xmlns="http://www.w3.org/2000/svg">
<path d="M15.3834 1.325C13.1834 -0.175004 10.4667 0.524996 9.00004 2.24166C7.53337 0.524996 4.8167 -0.183338 2.6167 1.325C1.45004 2.125 0.716702 3.475 0.666702 4.9C0.550035 8.13333 3.4167 10.725 7.7917 14.7L7.87504 14.775C8.50837 15.35 9.48337 15.35 10.1167 14.7667L10.2084 14.6833C14.5834 10.7167 17.4417 8.125 17.3334 4.89166C17.2834 3.475 16.55 2.125 15.3834 1.325V1.325ZM9.08337 13.4583L9.00004 13.5417L8.9167 13.4583C4.95003 9.86666 2.33337 7.49166 2.33337 5.08333C2.33337 3.41666 3.58337 2.16666 5.25004 2.16666C6.53337 2.16666 7.78337 2.99166 8.22504 4.13333H9.78337C10.2167 2.99166 11.4667 2.16666 12.75 2.16666C14.4167 2.16666 15.6667 3.41666 15.6667 5.08333C15.6667 7.49166 13.05 9.86666 9.08337 13.4583Z" fill="#7984C0"/>
</svg>
